<svg xmlns="http://www.w3.org/2000/svg" viewBox="0 0 400 400">
  <defs>
    <linearGradient id="bg" x1="0" y1="0" x2="1" y2="1">
      <stop offset="0" stop-color="#eaf6fd"/><stop offset="1" stop-color="#c8e6fa"/>
    </linearGradient>
    <linearGradient id="spray" x1="0" y1="0" x2="1" y2="0">
      <stop offset="0" stop-color="#ffffff"/><stop offset=".55" stop-color="#f2fafd"/><stop offset="1" stop-color="#d9edf8"/>
    </linearGradient>
  </defs>
  <rect width="400" height="400" rx="48" fill="url(#bg)"/>
  <circle cx="322" cy="92" r="82" fill="#a8d8f5" opacity=".4"/>
  <ellipse cx="200" cy="334" rx="100" ry="16" fill="#1b6ea8" opacity=".13"/>
  <rect x="186" y="70" width="28" height="26" rx="7" fill="#2287cf"/>
  <path d="M186 76 h-22 q-8 0 -8 8 v4 h30 z" fill="#2287cf"/>
  <g stroke="#7db9dd" stroke-width="5" stroke-linecap="round" opacity=".85">
    <line x1="142" y1="52" x2="128" y2="40"/>
    <line x1="136" y1="74" x2="118" y2="72"/>
    <line x1="142" y1="96" x2="128" y2="106"/>
  </g>
  <rect x="170" y="96" width="60" height="18" rx="8" fill="#16639b"/>
  <rect x="152" y="114" width="96" height="210" rx="26" fill="url(#spray)" stroke="#cbe5f4" stroke-width="2"/>
  <rect x="168" y="168" width="64" height="90" rx="12" fill="#ffffff" stroke="#d8ecf7" stroke-width="2"/>
  <path d="M200 184 q-16 26 -16 38 a16 16 0 0 0 32 0 q0 -12 -16 -38 z" fill="#57b3e3"/>
  <rect x="180" y="272" width="40" height="6" rx="3" fill="#9cc9e6"/>
  <path d="M164 130 q-12 80 -4 180" stroke="#ffffff" stroke-width="9" stroke-linecap="round" opacity=".85"/>
</svg>
